<?xml version="1.0" encoding="UTF-8"?>
<svg version="1.1" xmlns="http://www.w3.org/2000/svg" width="2000" height="2000">
<path d="M0 0 C660 0 1320 0 2000 0 C2000 660 2000 1320 2000 2000 C1340 2000 680 2000 0 2000 C0 1340 0 680 0 0 Z " fill="#FEFEFE" transform="translate(0,0)"/>
<path d="M0 0 C0.99 0 1.98 0 3 0 C4.63129267 3.26258533 4.20062291 6.87253558 4.24609375 10.4609375 C4.27912594 12.23177403 4.31233549 14.00260726 4.34570312 15.7734375 C4.39238831 18.54358663 4.43661104 21.31373335 4.47680664 24.08398438 C4.38906449 56.84703727 4.38906449 56.84703727 16.75 86.4375 C24.54269553 91.84909412 33.89273822 91.92377916 43.00537109 90.54541016 C46.08678669 89.91172991 49.13454938 89.19642958 52.1875 88.4375 C53.3010083 88.1701001 54.4145166 87.9027002 55.56176758 87.62719727 C71.60230367 83.71611025 87.6234643 79.51219933 103.109375 73.75 C106.1953116 72.94932456 107.97368215 73.10331323 111 74 C110.58195675 78.37415988 107.68449542 80.47471906 104.5625 83.1875 C104.01827393 83.67379883 103.47404785 84.16009766 102.91333008 84.66113281 C101.28291248 86.11600362 99.64328743 87.55969486 98 89 C71.17230093 111.39367569 71.17230093 111.39367569 56.9375 141.9375 C56.56686475 149.22048273 58.86489902 154.412721 63.625 159.859375 C75.13687616 170.67656898 90.63747572 177.85589757 104.30517578 185.49023438 C108.02834338 187.5761257 111.73502802 189.69014815 115.4375 191.8125 C116.52933594 192.43769531 117.62117188 193.06289062 118.74609375 193.70703125 C119.48988281 194.13371094 120.23367188 194.56039063 121 195 C121.042721 196.66611905 121.04063832 198.33382885 121 200 C119.44680187 201.55319813 117.95890082 201.13994773 115.79760742 201.15771484 C114.90124069 201.16797699 114.00487396 201.17823914 113.0813446 201.18881226 C111.60828606 201.19976425 111.60828606 201.19976425 110.10546875 201.2109375 C108.01236291 201.23907602 105.91926409 201.26774062 103.82617188 201.296875 C100.53801205 201.33761026 97.24997354 201.37448936 93.96166992 201.40136719 C65.4717547 200.53438383 65.4717547 200.53438383 40.3359375 211.515625 C35.46650418 216.90192554 35.71544835 222.31019101 35.78515625 229.25 C36.64805829 244.31156286 41.61441852 258.75852283 46.2890625 272.984375 C46.69366699 274.22219727 47.09827148 275.46001953 47.51513672 276.73535156 C48.32309827 279.1985321 49.13950301 281.65896315 49.96533203 284.11621094 C52.05809426 290.47756502 53.57111898 296.30945608 54 303 C48.9816182 301.52051187 46.20413357 298.57920204 42.66796875 294.92578125 C42.07252762 294.3237236 41.47708649 293.72166595 40.86360168 293.10136414 C38.96430803 291.17873729 37.07545252 289.24625905 35.1875 287.3125 C32.70564447 284.78397984 30.21966335 282.25957625 27.73046875 279.73828125 C27.13387451 279.13391235 26.53728027 278.52954346 25.92260742 277.90686035 C21.77971681 273.73179814 17.54444901 269.73916928 13 266 C12.42048584 265.514104 11.84097168 265.02820801 11.24389648 264.52758789 C1.05421758 256.06604184 -8.62567254 248.55662556 -22.40625 248.71875 C-30.10131433 249.55315457 -36.31273782 254.88068683 -41.2109375 260.56640625 C-49.09088876 271.47601386 -55.55285376 283.21095154 -62.14031982 294.92428589 C-65.0143174 300.03417848 -67.92247682 305.12260705 -70.875 310.1875 C-71.47248047 311.22837769 -71.47248047 311.22837769 -72.08203125 312.2902832 C-74.7671852 316.8835926 -74.7671852 316.8835926 -77 318 C-77.66 317.67 -78.32 317.34 -79 317 C-79.02505615 315.9483667 -79.0501123 314.8967334 -79.07592773 313.81323242 C-79.35512678 302.20798389 -79.66276814 290.60370837 -80 279 C-80.03206543 277.87577637 -80.06413086 276.75155273 -80.09716797 275.59326172 C-80.59793785 252.9371147 -80.59793785 252.9371147 -90.375 233.1875 C-99.32764807 225.72695994 -109.94929538 226.22696013 -121 227 C-138.00776391 229.10440892 -154.89198132 235.45216813 -171.14453125 240.62890625 C-171.88429199 240.86424072 -172.62405273 241.0995752 -173.38623047 241.34204102 C-175.27955598 241.94933836 -177.16925496 242.56791101 -179.05859375 243.1875 C-182 244 -182 244 -186 244 C-184.51800547 238.76361932 -181.17252805 235.79514765 -177.375 232.125 C-176.48748047 231.24521484 -176.48748047 231.24521484 -175.58203125 230.34765625 C-172.49737558 227.31629916 -169.34326098 224.40118569 -166.0703125 221.57421875 C-142.50052933 201.82411323 -142.50052933 201.82411323 -130.75 174.75 C-131.15528525 168.6707213 -132.69607717 164.29186702 -137 160 C-137 159.34 -137 158.68 -137 158 C-137.66 158 -138.32 158 -139 158 C-139 157.34 -139 156.68 -139 156 C-139.55695557 155.74621582 -140.11391113 155.49243164 -140.68774414 155.23095703 C-143.34423922 153.81674014 -145.59907479 152.12459264 -147.99609375 150.3046875 C-153.7681092 146.06109332 -159.77986966 142.55099455 -166.0625 139.125 C-167.67983032 138.23143799 -167.67983032 138.23143799 -169.32983398 137.31982422 C-171.50863743 136.11653453 -173.68903451 134.91612547 -175.87109375 133.71875 C-179.64575437 131.6452785 -183.4092408 129.55217007 -187.17163086 127.45654297 C-190.44533554 125.6333238 -193.7226109 123.81658604 -197 122 C-196.67 120.02 -196.34 118.04 -196 116 C-195.43862335 115.99191315 -194.8772467 115.98382629 -194.29885864 115.97549438 C-188.35935995 115.88821602 -182.4201491 115.78868971 -176.48095703 115.68261719 C-174.27592879 115.64475987 -172.07084781 115.60983916 -169.86572266 115.578125 C-140.85462609 116.55857252 -140.85462609 116.55857252 -115 106 C-109.60038495 97.45060951 -108.90771749 88.8048559 -110.49902344 78.89111328 C-111.20805556 75.75336637 -112.01394882 72.66195479 -112.875 69.5625 C-113.17946045 68.42594971 -113.4839209 67.28939941 -113.79760742 66.1184082 C-117.33282337 53.2491734 -121.61015215 40.61723275 -125.96606445 28.0065918 C-126.47786255 26.51832886 -126.47786255 26.51832886 -127 25 C-127.3714917 23.94143799 -127.7429834 22.88287598 -128.12573242 21.79223633 C-128.99420749 19.01850011 -129.16964789 16.88401405 -129 14 C-125.46172989 14.58006975 -123.83745229 15.80557907 -121.35571289 18.35131836 C-120.65720718 19.05973373 -119.95870148 19.76814911 -119.23902893 20.49803162 C-118.49112595 21.27082962 -117.74322296 22.04362762 -116.97265625 22.83984375 C-116.18789413 23.63596573 -115.40313202 24.43208771 -114.59458923 25.25233459 C-111.24126628 28.65450475 -107.90550767 32.07369159 -104.5690918 35.49243164 C-84.00823301 58.1767826 -84.00823301 58.1767826 -56.75 69.6875 C-43.95171909 67.3411485 -36.76061097 60.92915855 -29.5625 50.5 C-18.66529687 34.28310689 -9.41792546 17.09758692 0 0 Z " fill="#0CA5B5" transform="translate(474,841)"/>
<path d="M0 0 C10.89 0 21.78 0 33 0 C33 27.72 33 55.44 33 84 C62.04 84 91.08 84 121 84 C121 56.28 121 28.56 121 0 C131.89 0 142.78 0 154 0 C154 64.68 154 129.36 154 196 C143.11 196 132.22 196 121 196 C121 168.28 121 140.56 121 112 C91.96 112 62.92 112 33 112 C33 139.72 33 167.44 33 196 C22.11 196 11.22 196 0 196 C0 131.32 0 66.64 0 0 Z " fill="#030303" transform="translate(651,897)"/>
<path d="M0 0 C11.70334226 10.52681579 17.07055804 24.46330172 18.3125 39.87890625 C18.82562879 56.28299233 13.98358963 69.84638652 6 84 C5.45472656 84.97582031 4.90945313 85.95164062 4.34765625 86.95703125 C-5.5144356 103.42600126 -20.38934855 118.02671774 -35.35546875 129.859375 C-38.17357174 132.14049825 -40.83493069 134.54225575 -43.5 137 C-50.05128893 143.02492999 -56.88019779 148.66014834 -64 154 C-19.45 154.495 -19.45 154.495 26 155 C26 164.57 26 174.14 26 184 C-19.54 184 -65.08 184 -112 184 C-112 158 -112 158 -106.6875 151.4375 C-104.5005338 149.89662463 -102.27085706 148.4143289 -100 147 C-98.14604957 145.5255581 -96.31169935 144.02605916 -94.5 142.5 C-93.6028125 141.778125 -92.705625 141.05625 -91.78125 140.3125 C-88.75980664 137.80028867 -85.87559922 135.17597543 -83 132.5 C-78.39344575 128.21364389 -73.62872727 124.20247989 -68.7265625 120.25390625 C-64.88054883 117.07460842 -61.21933642 113.7088284 -57.546875 110.33203125 C-55.41058251 108.37594748 -53.25219343 106.45812303 -51.0625 104.5625 C-25.67773913 82.94717702 -25.67773913 82.94717702 -13.79736328 52.8671875 C-13.29563572 44.43959296 -12.97646874 35.65130535 -17 28 C-17.29390625 27.38125 -17.5878125 26.7625 -17.890625 26.125 C-20.99974918 20.74203873 -26.13463271 17.46694612 -31.95214844 15.49365234 C-41.44786985 13.20462651 -54.28318632 13.23525951 -63.0703125 17.75390625 C-63.70710937 18.16511719 -64.34390625 18.57632813 -65 19 C-65.63679687 19.40089844 -66.27359375 19.80179688 -66.9296875 20.21484375 C-78.3877834 28.69776882 -79.72779157 42.97849784 -82 56 C-91.9 56 -101.8 56 -112 56 C-112 38.09782216 -108.22621496 22.22155035 -97 8 C-96.52820313 7.36449219 -96.05640625 6.72898437 -95.5703125 6.07421875 C-86.05117693 -6.05326752 -71.12314591 -11.85797113 -56.24462891 -13.77734375 C-36.07907242 -15.77766869 -16.40729929 -12.6842032 0 0 Z " fill="#010101" transform="translate(950,909)"/>
<path d="M0 0 C18.92207691 16.17296527 30.35241341 41.36271238 32.33984375 65.97265625 C33.96960699 99.59774243 30.23108514 131.30800996 6.96484375 157.34765625 C-1.6004786 166.49165613 -11.1639664 172.18507849 -22.66015625 176.97265625 C-23.37945313 177.29105469 -24.09875 177.60945313 -24.83984375 177.9375 C-42.93452007 185.48320527 -70.49858163 185.08727337 -88.62890625 177.83691406 C-89.29921875 177.55170898 -89.96953125 177.26650391 -90.66015625 176.97265625 C-91.37945313 176.66682617 -92.09875 176.36099609 -92.83984375 176.04589844 C-116.25381249 165.66365177 -129.51920887 147.02718516 -138.94140625 123.81640625 C-140.00229467 120.89092606 -140.87047394 117.98260476 -141.66015625 114.97265625 C-141.95792969 113.84214844 -142.25570313 112.71164062 -142.5625 111.546875 C-144.68546477 101.81254346 -144.95082356 92.15549561 -144.97265625 82.22265625 C-144.97813477 80.92030029 -144.98361328 79.61794434 -144.98925781 78.27612305 C-144.80821766 53.66246616 -138.307778 30.2592598 -122.66015625 10.97265625 C-121.97759766 10.04646484 -121.97759766 10.04646484 -121.28125 9.1015625 C-109.95430622 -5.53893498 -90.18415041 -15.02600037 -72.15966797 -17.74609375 C-46.39628829 -20.64504016 -20.93791277 -15.95708771 0 0 Z M-106.66015625 17.97265625 C-119.75373646 32.88541312 -126.62549116 52.11331134 -126.93359375 71.828125 C-126.94607651 72.5637265 -126.95855927 73.299328 -126.97142029 74.05722046 C-127.18831518 89.89065171 -127.32795974 104.93876802 -121.66015625 119.97265625 C-121.2528125 121.05675781 -120.84546875 122.14085937 -120.42578125 123.2578125 C-119.29593838 125.92468186 -118.0525176 128.4346282 -116.66015625 130.97265625 C-116.22058594 131.80667969 -115.78101563 132.64070313 -115.328125 133.5 C-106.41716229 149.43172121 -92.68610102 159.40606958 -75.46875 165.01171875 C-57.6187797 169.69870482 -36.83685351 167.37260646 -20.69726562 158.24584961 C-2.85561268 147.42082679 7.45959398 129.90034279 12.33984375 109.97265625 C16.35703582 93.03811382 17.13631376 75.03495248 13.33984375 57.97265625 C13.09492187 56.79960938 12.85 55.6265625 12.59765625 54.41796875 C8.01584544 34.91486257 -2.16575293 17.91102549 -19.22265625 6.91015625 C-47.15453462 -9.29459761 -83.82363644 -4.63117704 -106.66015625 17.97265625 Z " fill="#030303" transform="translate(1503.66015625,913.02734375)"/>
<path d="M0 0 C0.73686035 -0.0093457 1.4737207 -0.01869141 2.23291016 -0.02832031 C12.57874606 0.03233171 21.48777485 2.97893246 29 10.1875 C38.52234024 20.23521074 50.71399595 33.71214349 51.3125 48.25 C50.18760184 64.29571719 42.33214673 82.95099233 30.625 94.25 C24.76648858 98.7886847 18.94232049 101.29177946 11.625 102.25 C10.51898438 102.41435547 10.51898438 102.41435547 9.390625 102.58203125 C2.77217231 103.37245156 -3.90452161 103.41531109 -10.5625 103.5 C-11.9705188 103.532146 -11.9705188 103.532146 -13.40698242 103.56494141 C-22.29314856 103.60737248 -28.67154302 101.59528363 -35.24609375 95.4453125 C-47.28337813 83.03255319 -58.86524222 69.03042239 -59.02197266 51.18579102 C-58.75114675 40.98948393 -54.80576702 32.28380663 -50.375 23.25 C-49.86324219 22.18265625 -49.35148437 21.1153125 -48.82421875 20.015625 C-44.47773558 11.93483939 -38.27025196 7.05746176 -29.6875 3.9375 C-19.9140688 1.06586133 -10.14632971 0.08781081 0 0 Z " fill="#FDFEFE" transform="translate(439.375,946.75)"/>
<path d="M0 0 C0.94875 0.2784375 1.8975 0.556875 2.875 0.84375 C16.41818942 5.20766659 27.79983279 15.0102271 34.72265625 27.3984375 C38.45937428 35.00900083 40.55189375 42.67338906 42 51 C36.39 51 30.78 51 25 51 C24.319375 48.89625 23.63875 46.7925 22.9375 44.625 C19.51019098 34.73525831 13.9446951 25.79121116 5 20 C-10.6159391 12.55001666 -30.39397455 11.06835121 -46.9140625 16.6796875 C-57.1548885 21.06120546 -63.23412178 26.32440794 -68.125 36.29296875 C-70.516698 43.69228444 -70.23864267 53.4745615 -67 60.5625 C-59.35823417 73.19999086 -45.39220772 77.386193 -31.8046875 81.078125 C-27.53318567 82.11310902 -23.24464219 83.00340069 -18.9375 83.875 C27.34892029 93.26310578 27.34892029 93.26310578 40.5 111.50390625 C48.0569199 124.07909327 50.13748141 138.7680243 47.28125 153.12890625 C43.71685548 167.37211177 37.0201459 178.62863751 24.5625 186.875 C11.30247832 194.70963139 -2.56597987 197.53343253 -17.88354492 197.39111328 C-19.93280832 197.37503681 -21.98009281 197.39105744 -24.02929688 197.41015625 C-35.88940357 197.43068654 -47.39933785 195.78301722 -58.25 190.8125 C-59.25148071 190.36293945 -59.25148071 190.36293945 -60.27319336 189.90429688 C-66.24961848 187.10138022 -71.159935 183.4885519 -76 179 C-76.62003906 178.48179687 -77.24007813 177.96359375 -77.87890625 177.4296875 C-87.39900234 168.95318136 -92.54571685 156.23912256 -95 144 C-95 142.68 -95 141.36 -95 140 C-89.06 140 -83.12 140 -77 140 C-76.46375 141.93875 -75.9275 143.8775 -75.375 145.875 C-71.32548654 158.87012856 -64.54159888 167.62255941 -52.5625 174.25 C-39.72111335 180.22197905 -26.01276809 181.90972945 -12 181 C-10.90300781 180.94070313 -9.80601563 180.88140625 -8.67578125 180.8203125 C1.90859686 179.75276145 13.69633639 175.05125535 21.1875 167.25 C22.71200072 165.23395816 22.71200072 165.23395816 24 163 C24.75023437 161.76056641 24.75023437 161.76056641 25.515625 160.49609375 C30.45269577 150.74402264 31.03787176 138.75224411 27.890625 128.32421875 C22.92418336 117.60364714 14.83034864 112.18501019 4 108 C-7.37518344 104.05680845 -19.12488021 101.47613124 -30.875 98.9375 C-70.63479085 90.32939574 -70.63479085 90.32939574 -81.09619141 74.32275391 C-88.16329405 62.16681069 -90.26094266 48.93825337 -86.8125 35.125 C-81.96125178 19.94238982 -71.4924635 9.97389545 -57.53515625 2.71875 C-40.22380106 -4.88557241 -17.93243161 -5.77822796 0 0 Z " fill="#030303" transform="translate(1656,898)"/>
<path d="M0 0 C41.25 0 82.5 0 125 0 C125 5.28 125 10.56 125 16 C89.69 16 54.38 16 18 16 C18 40.42 18 64.84 18 90 C49.02 90 80.04 90 112 90 C112 95.28 112 100.56 112 106 C80.98 106 49.96 106 18 106 C18 130.42 18 154.84 18 180 C53.31 180 88.62 180 125 180 C125 185.28 125 190.56 125 196 C83.75 196 42.5 196 0 196 C0 131.32 0 66.64 0 0 Z " fill="#040404" transform="translate(1020,897)"/>
<path d="M0 0 C5.94 0 11.88 0 18 0 C18 59.4 18 118.8 18 180 C47.7 180 77.4 180 108 180 C108 185.28 108 190.56 108 196 C72.36 196 36.72 196 0 196 C0 131.32 0 66.64 0 0 Z " fill="#040404" transform="translate(1176,897)"/>
<path d="M0 0 C5.61 0 11.22 0 17 0 C17 64.35 17 128.7 17 195 C11.39 195 5.78 195 0 195 C0 130.65 0 66.3 0 0 Z " fill="#000000" transform="translate(1308,898)"/>
<path d="M0 0 C2.37948772 0.17625835 3.70225849 0.69719773 5.37890625 2.40234375 C6.62115486 3.90649092 7.81376056 5.45129851 9 7 C6.50638429 5.79618552 4.31856917 4.54571278 2 3 C1.34 3.66 0.68 4.32 0 5 C0 3.35 0 1.7 0 0 Z " fill="#4DE0AC" transform="translate(345,855)"/>
<path d="M0 0 C0.763125 0.20625 1.52625 0.4125 2.3125 0.625 C1.9825 1.945 1.6525 3.265 1.3125 4.625 C0.9825 3.635 0.6525 2.645 0.3125 1.625 C-1.6675 1.625 -3.6475 1.625 -5.6875 1.625 C-2.6875 -0.375 -2.6875 -0.375 0 0 Z " fill="#62E5B5" transform="translate(582.6875,914.375)"/>
</svg>
